<svg id="Layer_1" enable-background="new 0 0 64 64" height="512" viewBox="0 0 64 64" width="512" xmlns="http://www.w3.org/2000/svg"><g><path d="m63.03 20.34c.54 0 .97-.43.97-.97s-.43-.97-.97-.97h-6.17v-4.38h6.17c.54 0 .97-.43.97-.97s-.43-.97-.97-.97h-6.17v-.37c0-2.52-2.05-4.58-4.58-4.58h-.37v-6.16c0-.54-.43-.97-.97-.97s-.97.43-.97.97v6.17h-4.37v-6.17c0-.54-.43-.97-.97-.97s-.97.43-.97.97v6.17h-4.38v-6.17c0-.54-.43-.97-.97-.97s-.97.43-.97.97v6.17h-4.38v-6.17c.01-.54-.42-.97-.96-.97s-.97.43-.97.97v6.17h-4.38v-6.17c0-.54-.43-.97-.97-.97s-.97.43-.97.97v6.17h-4.38v-6.17c0-.54-.43-.97-.97-.97s-.97.43-.97.97v6.17h-4.38v-6.17c0-.54-.43-.97-.97-.97s-.97.43-.97.97v6.17h-.37c-2.52 0-4.58 2.05-4.58 4.58v.37h-6.15c-.54 0-.97.43-.97.96s.43.97.97.97h6.17v4.38h-6.17c-.54 0-.97.43-.97.97s.43.97.97.97h6.17v4.38h-6.17c-.54 0-.97.43-.97.96 0 .54.43.97.97.97h6.17v4.38h-6.17c-.54 0-.97.43-.97.97s.43.97.97.97h6.17v4.38h-6.17c-.54-.01-.97.43-.97.96 0 .54.43.97.97.97h6.17v4.38h-6.17c-.54 0-.97.43-.97.97s.43.97.97.97h6.17v4.38h-6.17c-.54-.01-.97.43-.97.96s.43.97.97.97h6.17v.37c0 2.52 2.05 4.58 4.58 4.58h.37v6.17c0 .54.43.97.97.97s.97-.43.97-.97v-6.17h4.38v6.17c0 .54.43.97.97.97s.97-.43.97-.97v-6.17h4.38v6.17c0 .54.43.97.97.97s.97-.43.97-.97v-6.17h4.38v6.17c0 .54.43.97.97.97s.97-.43.97-.97v-6.17h4.38v6.17c0 .54.43.97.97.97s.97-.43.97-.97v-6.17h4.38v6.17c0 .54.43.97.97.97s.97-.43.97-.97v-6.17h4.38v6.17c0 .54.43.97.97.97s.97-.43.97-.97v-6.17h.37c2.52 0 4.58-2.05 4.58-4.58v-.37h6.17c.54 0 .97-.43.97-.97s-.43-.97-.97-.97h-6.17v-4.37h6.17c.54 0 .97-.43.97-.97s-.43-.97-.97-.97h-6.17v-4.38h6.17c.54 0 .97-.43.97-.97s-.43-.97-.97-.97h-6.17v-4.38h6.17c.54 0 .97-.43.97-.97s-.43-.97-.97-.97h-6.17v-4.38h6.17c.54 0 .97-.43.97-.97s-.43-.97-.97-.97h-6.17v-4.38h6.13zm-8.11 31.94c0 1.45-1.18 2.64-2.64 2.64h-40.56c-1.45 0-2.64-1.18-2.64-2.64v-40.56c0-1.45 1.18-2.64 2.64-2.64h40.57c1.45 0 2.64 1.18 2.64 2.64v40.56z"/><path d="m50.3 32c0-1.85-.89-3.58-2.34-4.66.35-.66.54-1.41.54-2.18 0-2.62-2.2-4.76-4.91-4.76-.01 0-.04.01-.04 0 0-2.01-1.64-3.65-3.65-3.65-.45 0-.88.08-1.29.24-.12-.57-.4-1.08-.82-1.49-.57-.56-1.32-.87-2.11-.87-1.65 0-3 1.35-3 3v28.77c0 1.65 1.35 3 3 3 1.44 0 2.64-1.02 2.93-2.37.41.16.85.24 1.29.24 2.01 0 3.65-1.64 3.65-3.65h.04c2.71 0 4.91-2.14 4.91-4.77 0-.77-.19-1.51-.54-2.18 1.45-1.1 2.34-2.83 2.34-4.67zm-3.51 3.1c-.39-.41-.99-.97-1.93-1.68-.43-.32-1.04-.24-1.36.19s-.24 1.04.19 1.36c1.58 1.19 2.01 1.84 2.04 1.88.03.05.07.1.11.14.01.01.01.02.02.03.46.5.7 1.13.7 1.81 0 1.56-1.33 2.83-2.97 2.83-.33 0-.66-.05-.96-.16-.37-.13-.78-.03-1.05.27-.26.29-.32.72-.15 1.07.12.24.17.49.17.76 0 .94-.77 1.71-1.71 1.71-.55 0-1.08-.27-1.4-.73-.24-.34-.68-.49-1.09-.36-.4.13-.67.5-.67.92v1.24c0 .59-.48 1.06-1.06 1.06s-1.06-.48-1.06-1.06v-6.01c.57-.69 1.64-1.66 2.3-1.61.54.06 1.01-.33 1.07-.86s-.33-1.01-.86-1.07c-.91-.1-1.78.32-2.5.86v-7.76c.63.18 1.47.63 2.1 1.77.18.32.51.5.85.5.16 0 .32-.04.47-.12.47-.26.64-.85.38-1.32-1.11-2.01-2.74-2.63-3.8-2.82v-5.37c.26.16.52.38.7.69s.51.48.84.48c.16 0 .33-.04.48-.13.46-.27.62-.86.35-1.32-.63-1.09-1.65-1.6-2.38-1.84v-2.85c0-.59.48-1.06 1.06-1.06.28 0 .55.11.76.32.19.19.3.45.3.74v1.24c0 .42.27.8.68.92.4.13.84-.02 1.09-.37.32-.46.84-.73 1.4-.73.94 0 1.71.77 1.71 1.71 0 .26-.06.52-.18.77-.17.35-.11.77.15 1.07.26.29.67.4 1.04.27.29-.1.62-.16.96-.16 1.64 0 2.97 1.26 2.97 2.82 0 .67-.25 1.31-.7 1.81-.05.05-.53.51-1.61.98-.49.22-.71.79-.5 1.28.16.36.52.58.89.58.13 0 .26-.03.39-.08.74-.33 1.28-.66 1.65-.93 1.04.71 1.69 1.91 1.69 3.2 0 1.25-.6 2.4-1.57 3.12z"/><path d="m38.04 24.66c-.53.01-.96.44-.96.98 0 .53.44.96.97.96.05 0 2.41.01 2.85 1.47.13.42.51.69.93.69.09 0 .18-.01.28-.04.51-.15.81-.69.65-1.21-.85-2.86-4.57-2.85-4.72-2.85z"/><path d="m41.66 35.21c-.53.02-.95.47-.93 1 .02.49-.11 1.97-.9 2.31-.49.21-.72.78-.5 1.28.16.37.52.58.89.58.13 0 .26-.03.39-.08 2.17-.94 2.07-4.03 2.06-4.16-.03-.53-.49-.94-1.01-.93z"/><path d="m28.32 14.62c-.79 0-1.54.31-2.11.87-.42.41-.7.93-.82 1.49-.41-.15-.84-.24-1.29-.24-2.01 0-3.65 1.64-3.65 3.65-.01 0-.02 0-.04 0-2.7 0-4.91 2.13-4.91 4.76 0 .77.19 1.51.54 2.18-1.45 1.08-2.34 2.82-2.34 4.66s.89 3.57 2.34 4.66c-.35.66-.54 1.41-.54 2.18 0 2.63 2.2 4.77 4.91 4.77h.04c0 2.01 1.64 3.65 3.65 3.65.45 0 .88-.08 1.29-.24.29 1.35 1.5 2.37 2.93 2.37 1.65 0 3-1.35 3-3v-28.76c0-1.66-1.35-3-3-3zm0 32.82c-.58 0-1.06-.48-1.06-1.06v-1.24c0-.42-.27-.8-.67-.92-.1-.03-.2-.05-.29-.05-.31 0-.61.15-.79.41-.33.46-.85.73-1.4.73-.94 0-1.71-.77-1.71-1.71 0-.27.06-.53.17-.76.17-.35.11-.78-.15-1.07s-.68-.4-1.05-.27c-.29.1-.62.16-.96.16-1.64 0-2.97-1.27-2.97-2.83 0-.68.24-1.31.7-1.81.01-.02.02-.04.03-.05.03-.04.07-.07.09-.12 0-.01.41-.65 2.04-1.89.43-.32.51-.93.19-1.36s-.93-.51-1.36-.19c-.94.71-1.54 1.27-1.93 1.68-.97-.72-1.57-1.87-1.57-3.1 0-1.28.65-2.48 1.69-3.2.37.27.9.6 1.65.93.13.06.26.08.39.08.37 0 .73-.22.89-.58.22-.49-.01-1.06-.5-1.28-1.08-.48-1.57-.94-1.62-.99-.45-.5-.7-1.14-.7-1.81 0-1.55 1.33-2.82 2.97-2.82.33 0 .66.05.96.16.37.13.78.03 1.04-.27.26-.29.32-.71.15-1.07-.12-.25-.18-.51-.18-.77 0-.94.77-1.71 1.71-1.71.57 0 1.08.27 1.4.73.24.35.68.5 1.09.37.4-.13.68-.5.68-.92v-1.24c0-.29.11-.55.3-.74.21-.21.48-.32.76-.32.58 0 1.06.48 1.06 1.06v2.85c-.73.24-1.75.75-2.38 1.84-.27.46-.11 1.06.35 1.32.15.09.32.13.48.13.34 0 .66-.17.84-.48s.44-.53.7-.69v5.37c-1.06.19-2.69.81-3.8 2.82-.26.47-.09 1.06.38 1.32.15.08.31.12.47.12.34 0 .67-.18.85-.5.62-1.13 1.47-1.58 2.1-1.76v7.76c-.72-.53-1.59-.95-2.5-.86-.53.06-.92.53-.86 1.07.06.53.54.92 1.07.86.65-.05 1.68.85 2.3 1.61v6.01c.01.58-.47 1.05-1.05 1.05z"/><path d="m25.95 26.6c.53 0 .96-.43.97-.96.01-.54-.42-.97-.96-.98-.15 0-3.87-.01-4.72 2.86-.15.51.14 1.05.65 1.21.09.03.19.04.28.04.42 0 .8-.27.93-.69.43-1.47 2.8-1.48 2.85-1.48-.01 0 0 0 0 0z"/><path d="m24.17 38.52c-.78-.34-.91-1.82-.9-2.31.02-.53-.4-.98-.93-1-.56-.03-.99.39-1.01.93-.01.13-.1 3.22 2.06 4.16.13.05.26.08.39.08.37 0 .73-.22.89-.58.22-.49-.01-1.06-.5-1.28z"/></g></svg>