<svg xmlns="http://www.w3.org/2000/svg" version="1.1" xmlns:xlink="http://www.w3.org/1999/xlink" width="512" height="512" x="0" y="0" viewBox="0 0 64 64" style="enable-background:new 0 0 512 512" xml:space="preserve"><g><path d="M63.03 20.34c.54 0 .97-.43.97-.97s-.43-.97-.97-.97h-6.17v-4.38h6.17c.54 0 .97-.43.97-.97s-.43-.97-.97-.97h-6.17v-.37c0-2.52-2.05-4.58-4.58-4.58h-.37V.97c0-.54-.43-.97-.97-.97s-.97.43-.97.97v6.17H45.6V.97c0-.54-.43-.97-.97-.97s-.97.43-.97.97v6.17h-4.38V.97c0-.54-.43-.97-.97-.97s-.97.43-.97.97v6.17h-4.38V.97C32.97.43 32.54 0 32 0s-.97.43-.97.97v6.17h-4.38V.97c0-.54-.43-.97-.97-.97s-.97.43-.97.97v6.17h-4.38V.97c0-.54-.43-.97-.97-.97s-.97.43-.97.97v6.17h-4.38V.97c0-.54-.43-.97-.97-.97s-.97.43-.97.97v6.17h-.37c-2.52 0-4.58 2.05-4.58 4.58v.37H.97c-.54 0-.97.43-.97.96s.43.97.97.97h6.17v4.38H.97c-.54 0-.97.43-.97.97s.43.97.97.97h6.17v4.38H.97a.965.965 0 1 0 0 1.93h6.17v4.38H.97c-.54 0-.97.43-.97.97s.43.97.97.97h6.17v4.38H.97a.956.956 0 0 0-.97.96c0 .54.43.97.97.97h6.17v4.38H.97c-.54 0-.97.43-.97.97s.43.97.97.97h6.17v4.38H.97c-.54-.01-.97.43-.97.96s.43.97.97.97h6.17v.37c0 2.52 2.05 4.58 4.58 4.58h.37v6.17c0 .54.43.97.97.97s.97-.43.97-.97v-6.17h4.38v6.17c0 .54.43.97.97.97s.97-.43.97-.97v-6.17h4.38v6.17c0 .54.43.97.97.97s.97-.43.97-.97v-6.17h4.38v6.17c0 .54.43.97.97.97s.97-.43.97-.97v-6.17h4.38v6.17c0 .54.43.97.97.97s.97-.43.97-.97v-6.17h4.38v6.17c0 .54.43.97.97.97s.97-.43.97-.97v-6.17h4.38v6.17c0 .54.43.97.97.97s.97-.43.97-.97v-6.17h.37c2.52 0 4.58-2.05 4.58-4.58v-.37h6.17c.54 0 .97-.43.97-.97s-.43-.97-.97-.97H56.9V45.6h6.17c.54 0 .97-.43.97-.97s-.43-.97-.97-.97H56.9v-4.38h6.17c.54 0 .97-.43.97-.97s-.43-.97-.97-.97H56.9v-4.38h6.17c.54 0 .97-.43.97-.97s-.43-.97-.97-.97H56.9v-4.38h6.17c.54 0 .97-.43.97-.97s-.43-.97-.97-.97H56.9v-4.38h6.13zm-8.11 31.94c0 1.45-1.18 2.64-2.64 2.64H11.72c-1.45 0-2.64-1.18-2.64-2.64V11.72c0-1.45 1.18-2.64 2.64-2.64h40.57c1.45 0 2.64 1.18 2.64 2.64v40.56z" fill="#ffffff" opacity="1" data-original="#000000"></path><path d="M50.3 32c0-1.85-.89-3.58-2.34-4.66.35-.66.54-1.41.54-2.18 0-2.62-2.2-4.76-4.91-4.76-.01 0-.04.01-.04 0 0-2.01-1.64-3.65-3.65-3.65-.45 0-.88.08-1.29.24a2.9 2.9 0 0 0-.82-1.49 3 3 0 0 0-2.11-.87c-1.65 0-3 1.35-3 3V46.4c0 1.65 1.35 3 3 3 1.44 0 2.64-1.02 2.93-2.37.41.16.85.24 1.29.24 2.01 0 3.65-1.64 3.65-3.65h.04c2.71 0 4.91-2.14 4.91-4.77 0-.77-.19-1.51-.54-2.18 1.45-1.1 2.34-2.83 2.34-4.67zm-3.51 3.1c-.39-.41-.99-.97-1.93-1.68a.971.971 0 0 0-1.17 1.55c1.58 1.19 2.01 1.84 2.04 1.88.03.05.07.1.11.14.01.01.01.02.02.03.46.5.7 1.13.7 1.81 0 1.56-1.33 2.83-2.97 2.83-.33 0-.66-.05-.96-.16a.97.97 0 0 0-1.05.27c-.26.29-.32.72-.15 1.07.12.24.17.49.17.76 0 .94-.77 1.71-1.71 1.71-.55 0-1.08-.27-1.4-.73a.973.973 0 0 0-1.09-.36c-.4.13-.67.5-.67.92v1.24c0 .59-.48 1.06-1.06 1.06s-1.06-.48-1.06-1.06v-6.01c.57-.69 1.64-1.66 2.3-1.61.54.06 1.01-.33 1.07-.86s-.33-1.01-.86-1.07c-.91-.1-1.78.32-2.5.86v-7.76c.63.18 1.47.63 2.1 1.77a.975.975 0 0 0 1.32.38.97.97 0 0 0 .38-1.32c-1.11-2.01-2.74-2.63-3.8-2.82v-5.37c.26.16.52.38.7.69a.972.972 0 0 0 1.32.35c.46-.27.62-.86.35-1.32-.63-1.09-1.65-1.6-2.38-1.84V17.6a1.06 1.06 0 0 1 2.12 0v1.24c0 .42.27.8.68.92.4.13.84-.02 1.09-.37.32-.46.84-.73 1.4-.73a1.716 1.716 0 0 1 1.53 2.48.98.98 0 0 0 .15 1.07c.26.29.67.4 1.04.27.29-.1.62-.16.96-.16 1.64 0 2.97 1.26 2.97 2.82a2.7 2.7 0 0 1-.7 1.81c-.05.05-.53.51-1.61.98a.98.98 0 0 0-.5 1.28c.16.36.52.58.89.58.13 0 .26-.03.39-.08.74-.33 1.28-.66 1.65-.93a3.89 3.89 0 0 1 1.69 3.2c0 1.25-.6 2.4-1.57 3.12z" fill="#ffffff" opacity="1" data-original="#000000"></path><path d="M38.04 24.66a.969.969 0 0 0 .01 1.94c.05 0 2.41.01 2.85 1.47a.972.972 0 0 0 1.21.65c.51-.15.81-.69.65-1.21-.85-2.86-4.57-2.85-4.72-2.85zM41.66 35.21a.97.97 0 0 0-.93 1c.02.49-.11 1.97-.9 2.31-.49.21-.72.78-.5 1.28.16.37.52.58.89.58.13 0 .26-.03.39-.08 2.17-.94 2.07-4.03 2.06-4.16a.998.998 0 0 0-1.01-.93zM28.32 14.62a3 3 0 0 0-2.11.87c-.42.41-.7.93-.82 1.49-.41-.15-.84-.24-1.29-.24-2.01 0-3.65 1.64-3.65 3.65h-.04c-2.7 0-4.91 2.13-4.91 4.76 0 .77.19 1.51.54 2.18-1.45 1.08-2.34 2.82-2.34 4.66s.89 3.57 2.34 4.66a4.66 4.66 0 0 0-.54 2.18c0 2.63 2.2 4.77 4.91 4.77h.04c0 2.01 1.64 3.65 3.65 3.65.45 0 .88-.08 1.29-.24a3.01 3.01 0 0 0 2.93 2.37c1.65 0 3-1.35 3-3V17.62c0-1.66-1.35-3-3-3zm0 32.82c-.58 0-1.06-.48-1.06-1.06v-1.24c0-.42-.27-.8-.67-.92-.1-.03-.2-.05-.29-.05-.31 0-.61.15-.79.41-.33.46-.85.73-1.4.73-.94 0-1.71-.77-1.71-1.71 0-.27.06-.53.17-.76.17-.35.11-.78-.15-1.07s-.68-.4-1.05-.27c-.29.1-.62.16-.96.16-1.64 0-2.97-1.27-2.97-2.83 0-.68.24-1.31.7-1.81.01-.02.02-.04.03-.05.03-.04.07-.07.09-.12 0-.01.41-.65 2.04-1.89a.971.971 0 0 0-1.17-1.55c-.94.71-1.54 1.27-1.93 1.68a3.879 3.879 0 0 1-1.57-3.1c0-1.28.65-2.48 1.69-3.2.37.27.9.6 1.65.93a.982.982 0 0 0 1.28-.5.971.971 0 0 0-.5-1.28c-1.08-.48-1.57-.94-1.62-.99a2.7 2.7 0 0 1-.7-1.81c0-1.55 1.33-2.82 2.97-2.82.33 0 .66.05.96.16.37.13.78.03 1.04-.27.26-.29.32-.71.15-1.07a1.716 1.716 0 0 1 1.53-2.48c.57 0 1.08.27 1.4.73.24.35.68.5 1.09.37.4-.13.68-.5.68-.92V17.6c0-.29.11-.55.3-.74.21-.21.48-.32.76-.32.58 0 1.06.48 1.06 1.06v2.85c-.73.24-1.75.75-2.38 1.84a.963.963 0 0 0 .83 1.45c.34 0 .66-.17.84-.48s.44-.53.7-.69v5.37c-1.06.19-2.69.81-3.8 2.82a.97.97 0 1 0 1.7.94c.62-1.13 1.47-1.58 2.1-1.76v7.76c-.72-.53-1.59-.95-2.5-.86-.53.06-.92.53-.86 1.07.06.53.54.92 1.07.86.65-.05 1.68.85 2.3 1.61v6.01c.01.58-.47 1.05-1.05 1.05z" fill="#ffffff" opacity="1" data-original="#000000"></path><path d="M25.95 26.6c.53 0 .96-.43.97-.96a.965.965 0 0 0-.96-.98c-.15 0-3.87-.01-4.72 2.86-.15.51.14 1.05.65 1.21a.972.972 0 0 0 1.21-.65c.43-1.47 2.8-1.48 2.85-1.48-.01 0 0 0 0 0zM24.17 38.52c-.78-.34-.91-1.82-.9-2.31a.97.97 0 0 0-.93-1 .948.948 0 0 0-1.01.93c-.01.13-.1 3.22 2.06 4.16.13.05.26.08.39.08.37 0 .73-.22.89-.58a.971.971 0 0 0-.5-1.28z" fill="#ffffff" opacity="1" data-original="#000000"></path></g></svg>