<svg id="Icons" viewBox="0 0 60 60" xmlns="http://www.w3.org/2000/svg"><path d="m58.95 22.363-28.163-13.188c-.5-.233-1.073-.233-1.575 0l-28.163 13.188c-.647.303-1.049.931-1.049 1.637 0 .06.019.114.025.173h-.025v3.017c0 .979.569 1.886 1.451 2.311l2.549 1.231v6.453c-1.161.414-2 1.514-2 2.816 0 .639.204 1.228.545 1.715l-1.265 5.038c-.138.542-.02 1.106.323 1.549.345.443.865.698 1.426.698h3.94c.561 0 1.081-.255 1.426-.698.343-.442.461-1.007.324-1.545l-1.265-5.042c.341-.487.545-1.077.545-1.715 0-1.302-.839-2.402-2-2.816v-5.487l5 2.414v12.029c0 1.989.911 3.865 2.44 5.021 2.336 1.752 7.105 3.84 16.56 3.84s14.224-2.088 16.563-3.842c1.525-1.154 2.437-3.03 2.437-5.019v-12.029l9.55-4.61c.881-.425 1.45-1.332 1.45-2.311v-3.017h-.025c.006-.058.025-.113.025-.173 0-.707-.402-1.334-1.05-1.637zm-53.95 16.637c.551 0 1 .448 1 1s-.449 1-1 1-1-.448-1-1 .449-1 1-1zm-1.719 8 1.026-4.089c.224.053.454.089.693.089s.47-.036.693-.089l1.026 4.089zm26.719-35.985 27.73 12.985-27.73 12.985-21.263-9.957 15.708-1.494c.886 1.46 3.011 2.466 5.556 2.466 3.364 0 6-1.757 6-4s-2.636-4-6-4c-3.143 0-5.648 1.533-5.965 3.564l-18.864 1.795-2.902-1.359 27.731-12.985zm-4 12.985c0-.944 1.71-2 4-2s4 1.056 4 2-1.711 2-4 2-4-1.056-4-2zm-23.68 3.699c-.194-.093-.32-.293-.32-.509v-1.108l2 .936v1.492zm44.68 18.44c0 1.365-.614 2.646-1.64 3.421-2.093 1.569-6.457 3.439-15.36 3.439s-13.268-1.87-15.357-3.438c-1.029-.777-1.643-2.058-1.643-3.423v-11.063l15.886 7.67c.354.17.734.255 1.114.255s.761-.085 1.116-.256l15.885-7.669v11.063zm10.681-18.44-27.434 13.244c-.158.075-.336.074-.493 0l-23.754-11.467v-1.521l23.212 10.869c.25.118.52.177.788.177s.538-.059.787-.177l27.212-12.742v1.108c0 .216-.125.416-.319.51z"/></svg>