<svg xmlns="http://www.w3.org/2000/svg" version="1.1" xmlns:xlink="http://www.w3.org/1999/xlink" width="512" height="512" x="0" y="0" viewBox="0 0 60 60" style="enable-background:new 0 0 512 512" xml:space="preserve"><g><path d="M58.95 22.363 30.787 9.175a1.862 1.862 0 0 0-1.575 0L1.049 22.363A1.796 1.796 0 0 0 0 24c0 .06.019.114.025.173H0v3.017c0 .979.569 1.886 1.451 2.311L4 30.732v6.453a2.996 2.996 0 0 0-2 2.816c0 .639.204 1.228.545 1.715L1.28 46.754a1.792 1.792 0 0 0 .323 1.549c.345.443.865.698 1.426.698h3.94c.561 0 1.081-.255 1.426-.698a1.789 1.789 0 0 0 .324-1.545l-1.265-5.042a2.98 2.98 0 0 0 .545-1.715 2.996 2.996 0 0 0-2-2.816v-5.487l5 2.414v12.029c0 1.989.911 3.865 2.44 5.021 2.336 1.752 7.105 3.84 16.56 3.84s14.224-2.088 16.563-3.842c1.525-1.154 2.437-3.03 2.437-5.019V34.112l9.55-4.61a2.58 2.58 0 0 0 1.45-2.311v-3.017h-.025c.006-.058.025-.113.025-.173 0-.707-.402-1.334-1.05-1.637zM5 39a1.001 1.001 0 1 1-1 1c0-.552.449-1 1-1zm-1.719 8 1.026-4.089c.224.053.454.089.693.089s.47-.036.693-.089L6.719 47zM30 11.015 57.73 24 30 36.985 8.737 27.028l15.708-1.494c.886 1.46 3.011 2.466 5.556 2.466 3.364 0 6-1.757 6-4s-2.636-4-6-4c-3.143 0-5.648 1.533-5.965 3.564L5.172 25.359 2.27 24l27.731-12.985zM26 24c0-.944 1.71-2 4-2s4 1.056 4 2-1.711 2-4 2-4-1.056-4-2zM2.32 27.699A.568.568 0 0 1 2 27.19v-1.108l2 .936v1.492zM47 46.139c0 1.365-.614 2.646-1.64 3.421-2.093 1.569-6.457 3.439-15.36 3.439s-13.268-1.87-15.357-3.438C13.614 48.784 13 47.503 13 46.138V35.075l15.886 7.67a2.57 2.57 0 0 0 2.23-.001l15.885-7.669v11.063zm10.681-18.44L30.247 40.943a.572.572 0 0 1-.493 0L6 29.476v-1.521l23.212 10.869a1.848 1.848 0 0 0 1.575 0l27.212-12.742v1.108a.57.57 0 0 1-.319.51z" fill="#ffffff" opacity="1" data-original="#000000"></path></g></svg>