<svg id="Layer_1" enable-background="new 0 0 512 512" height="512" viewBox="0 0 512 512" width="512" xmlns="http://www.w3.org/2000/svg" xmlns:xlink="http://www.w3.org/1999/xlink"><linearGradient id="SVGID_1_" gradientUnits="userSpaceOnUse" x1="247.615" x2="405.468" y1="135.562" y2="391.945"><stop offset="0"/><stop offset=".9425" stop-opacity="0"/></linearGradient><g fill="#f2f2f2"><path d="m470 131.5-30.5 306.8h-367l-24.6-300.8 208.1 116.4z"/><path d="m459.6 73.7-203.6 191.3-203.6-191.3h203.6z"/></g><path d="m467 131.1.4 10.6-397.8 296.2-24.6-300.8 208 116.5z" opacity=".1"/><path d="m72.5 162.1v276.2h-33.2c-12.5 0-22.6-10.1-22.6-22.6v-294.3l36.5 1z" fill="#d54c3f"/><path d="m467 131.1.4 307.2-208.4-.2-242.3-316.7 236.3 132.2z" fill="url(#SVGID_1_)" opacity=".2"/><path d="m495.3 121.4v294.3c0 12.5-10.1 22.6-22.6 22.6h-33.2v-276.2l18.4-43.5z" fill="#c33c2c"/><path d="m495.3 96.3v25.1l-55.8 40.7-183.3 136.9-183.7-136.9-55.8-40.7v-25.1c0-12.5 10.1-22.6 22.6-22.6h13.1l203.6 148.5 203.6-148.5h13c12.6 0 22.7 10.1 22.7 22.6z" fill="#de5145"/></svg>