<?xml version="1.0"?>
<svg xmlns="http://www.w3.org/2000/svg" viewBox="0 0 64 64" width="512" height="512"><g id="Layer_2" data-name="Layer 2"><path d="M56.73,29.32,49,20.94c-.08-2.55.2-3.16-.29-3.65l-8-8C40.22,8.81,39.52,9.08,38,9L32.73,3.32a1,1,0,0,0-1.46,0L26,9H16a1,1,0,0,0-1,1V20.94L7.27,29.32h0A1,1,0,0,0,7,30V56a5,5,0,0,0,5,5H52a5,5,0,0,0,5-5V30a1,1,0,0,0-.27-.67ZM49,31h4.39L49,34.93Zm4.72-2H49V23.89ZM45.59,17H41V12.41ZM32,5.47,35.25,9h-6.5ZM39,11v7a1,1,0,0,0,1,1h7V36.73L37.72,45,32.6,41.2a1,1,0,0,0-1.2,0l-5,3.78L17,36.66V11ZM15,34.88,10.63,31H15ZM15,29H10.28L15,23.89ZM9,32.23l15.73,14L9.49,57.63A3,3,0,0,1,9,56ZM12,59a2.88,2.88,0,0,1-.83-.13L32,43.25,52.83,58.87A2.88,2.88,0,0,1,52,59Zm42.51-1.37L39.36,46.27,55,32.24V56A3,3,0,0,1,54.51,57.63Z"/><path d="M32,38a1,1,0,0,0,0-2,7.5,7.5,0,1,1,7.5-7.5,6.3,6.3,0,0,1-1.15,4,2.47,2.47,0,0,1-1.79,1.1c-.4,0-.56-.18-.56-.62V25a1,1,0,0,0-2,0v.63A3.62,3.62,0,0,0,32,25a4.27,4.27,0,0,0-4,4.5A4.27,4.27,0,0,0,32,34a3.64,3.64,0,0,0,2-.64c.46,4.06,7.47,2.8,7.47-4.86A9.5,9.5,0,1,0,32,38Zm0-6a2.3,2.3,0,0,1-2-2.5A2.3,2.3,0,0,1,32,27a2.3,2.3,0,0,1,2,2.5A2.3,2.3,0,0,1,32,32Z"/></g></svg>
