<svg id="Graphic_Elements" data-name="Graphic Elements" xmlns="http://www.w3.org/2000/svg" width="72.64" height="72.64" viewBox="0 0 72.64 72.64">
  <g id="Grupo_7" data-name="Grupo 7" transform="translate(0 0)">
    <path id="Trazado_20" data-name="Trazado 20" d="M72.64,36.32c0-1.614-24.211-1.614-24.211-1.614H40.217l2.951-2.951S54.583,20.34,53.441,19.2,40.885,29.471,40.885,29.471l-2.951,2.951V24.211S37.934,0,36.32,0s-1.614,24.211-1.614,24.211v8.211l-2.951-2.951S20.34,18.057,19.2,19.2,29.471,31.754,29.471,31.754l2.951,2.951H24.211S0,34.705,0,36.32s24.211,1.614,24.211,1.614h8.211l-2.951,2.951S18.057,52.3,19.2,53.441,31.754,43.168,31.754,43.168l2.951-2.951v8.211s0,24.211,1.614,24.211,1.614-24.211,1.614-24.211V40.217l2.951,2.951S52.3,54.583,53.441,53.441,43.168,40.885,43.168,40.885l-2.951-2.951h8.211s24.211,0,24.211-1.614Z" transform="translate(0 0)"/>
    <path id="Trazado_21" data-name="Trazado 21" d="M121.955,22.763A2.453,2.453,0,1,1,119.5,20.31,2.452,2.452,0,0,1,121.955,22.763Z" transform="translate(-56.868 -9.868)"/>
    <path id="Trazado_22" data-name="Trazado 22" d="M18.225,87.983a2.453,2.453,0,1,1-2.453-2.453A2.452,2.452,0,0,1,18.225,87.983Z" transform="translate(-6.471 -41.554)"/>
    <path id="Trazado_23" data-name="Trazado 23" d="M104.225,118.863a2.453,2.453,0,1,1-2.453-2.453A2.452,2.452,0,0,1,104.225,118.863Z" transform="translate(-48.254 -56.557)"/>
    <path id="Trazado_24" data-name="Trazado 24" d="M126.215,129.433a2.453,2.453,0,1,1-2.453-2.453A2.452,2.452,0,0,1,126.215,129.433Z" transform="translate(-58.938 -61.693)"/>
  </g>
</svg>
