<svg id="Graphic_Elements" data-name="Graphic Elements" xmlns="http://www.w3.org/2000/svg" width="63.336" height="63.331" viewBox="0 0 63.336 63.331">
  <g id="Grupo_6" data-name="Grupo 6" transform="translate(0 0)">
    <path id="Trazado_8" data-name="Trazado 8" d="M74.69,18.182c2.591-4.679,5.167-9.445,5.2-9.5a1.515,1.515,0,1,0-2.7-1.378c-.026.046-2.417,4.905-4.725,9.733-4.931,10.3-4.823,10.355-4.118,10.72a.723.723,0,0,0,.324.113c.56,0,1.4-1.332,6.026-9.682Z" transform="translate(-33.032 -3.146)"/>
    <path id="Trazado_9" data-name="Trazado 9" d="M59.149,12.275C59.056,6.928,58.9,1.514,58.9,1.447A1.511,1.511,0,0,0,58.4.4a1.461,1.461,0,0,0-1.09-.391,1.528,1.528,0,0,0-1.445,1.6c0,.051.36,5.46.771,10.792.833,10.766.987,11.347,1.671,11.347h.123c.792-.036.915-.041.715-11.46Z" transform="translate(-27.141 -0.004)"/>
    <path id="Trazado_10" data-name="Trazado 10" d="M33.224,20.548c5.291,7.723,6.314,9.07,6.879,9.07a.647.647,0,0,0,.344-.144c.668-.427.771-.494-5.111-10.283-2.756-4.586-5.6-9.193-5.63-9.25a1.519,1.519,0,0,0-2.761.494,1.5,1.5,0,0,0,.211,1.152c.031.046,3.044,4.545,6.062,8.962Z" transform="translate(-13.073 -4.493)"/>
    <path id="Trazado_11" data-name="Trazado 11" d="M7.308,34.594c.046.026,4.905,2.417,9.733,4.725,7.358,3.522,9.486,4.473,10.237,4.473.3,0,.38-.154.483-.355.365-.7.422-.812-9.568-6.35-4.679-2.591-9.445-5.167-9.5-5.2a1.515,1.515,0,1,0-1.378,2.7Z" transform="translate(-3.147 -15.413)"/>
    <path id="Trazado_12" data-name="Trazado 12" d="M23.732,61.565c-.036-.792-.046-.915-11.46-.715-5.347.093-10.761.252-10.828.252a1.518,1.518,0,0,0-.951,2.638,1.5,1.5,0,0,0,1.023.4h.077c.051,0,5.46-.36,10.792-.771,11.388-.879,11.383-1,11.342-1.794Z" transform="translate(0.003 -29.525)"/>
    <path id="Trazado_13" data-name="Trazado 13" d="M29.482,69.646h0c-.427-.668-.494-.771-10.283,5.111-4.586,2.756-9.193,5.6-9.25,5.63a1.519,1.519,0,0,0-.663.951,1.488,1.488,0,0,0,.206,1.141,1.519,1.519,0,0,0,.951.663,1.39,1.39,0,0,0,.324.036,1.525,1.525,0,0,0,.828-.247c.046-.031,4.545-3.044,8.957-6.062,9.419-6.458,9.358-6.555,8.926-7.224Z" transform="translate(-4.492 -33.688)"/>
    <path id="Trazado_14" data-name="Trazado 14" d="M43.437,75.214c-.7-.365-.812-.422-6.35,9.568-2.591,4.679-5.167,9.445-5.2,9.5A1.518,1.518,0,0,0,33.231,96.5a1.528,1.528,0,0,0,1.357-.833c.026-.046,2.417-4.905,4.725-9.733,4.931-10.3,4.823-10.355,4.118-10.72Z" transform="translate(-15.409 -36.491)"/>
    <path id="Trazado_15" data-name="Trazado 15" d="M61.565,77.016c-.792.036-.915.041-.715,11.46.093,5.347.252,10.761.252,10.828a1.515,1.515,0,0,0,1.512,1.445h.072a1.528,1.528,0,0,0,1.445-1.6c0-.051-.36-5.46-.771-10.792-.879-11.389-1-11.383-1.794-11.342Z" transform="translate(-29.521 -37.418)"/>
    <path id="Trazado_16" data-name="Trazado 16" d="M76.87,83.38c-6.453-9.419-6.555-9.358-7.224-8.926s-.771.494,5.111,10.283c2.756,4.586,5.6,9.193,5.63,9.25a1.517,1.517,0,1,0,2.55-1.645c-.031-.046-3.039-4.545-6.062-8.962Z" transform="translate(-33.684 -36.105)"/>
    <path id="Trazado_17" data-name="Trazado 17" d="M95.667,77.189c-.046-.026-4.905-2.417-9.733-4.725-10.3-4.931-10.36-4.823-10.72-4.118s-.422.812,9.568,6.35c4.679,2.591,9.445,5.167,9.5,5.2a1.489,1.489,0,0,0,.694.17,1.607,1.607,0,0,0,.463-.072,1.517,1.517,0,0,0,.221-2.8Z" transform="translate(-36.487 -33.036)"/>
    <path id="Trazado_18" data-name="Trazado 18" d="M99.15,55.863c-.051,0-5.46.36-10.792.771-11.388.879-11.383,1-11.342,1.794.026.576.036.8,4.463.8,1.645,0,3.9-.031,7-.082,5.347-.093,10.761-.252,10.828-.252a1.519,1.519,0,1,0-.154-3.034Z" transform="translate(-37.414 -27.14)"/>
    <path id="Trazado_19" data-name="Trazado 19" d="M74.454,40.458c.113.175.2.308.442.308.689,0,2.617-1.08,9.841-5.424,4.586-2.756,9.193-5.6,9.25-5.63a1.515,1.515,0,1,0-1.645-2.545c-.046.031-4.545,3.039-8.962,6.062-9.419,6.458-9.358,6.561-8.926,7.224Z" transform="translate(-36.102 -13.081)"/>
  </g>
</svg>
