<svg id="Graphic_Elements" data-name="Graphic Elements" xmlns="http://www.w3.org/2000/svg" width="72.742" height="55.889" viewBox="0 0 72.742 55.889">
  <g id="Grupo_8" data-name="Grupo 8" transform="translate(0 0)">
    <path id="Trazado_25" data-name="Trazado 25" d="M58.65,42.942,43.786,52.634a.469.469,0,0,1-.715-.509l4.843-16.8a.459.459,0,0,0-.159-.488L33.729,24.021A.459.459,0,0,1,34,23.2L51.858,22.5a.463.463,0,0,0,.422-.3L58.47,5.836a.475.475,0,0,1,.884,0l6.19,16.371a.463.463,0,0,0,.422.3l17.857.694a.459.459,0,0,1,.273.823L70.07,34.834a.456.456,0,0,0-.159.488l4.843,16.8a.469.469,0,0,1-.715.509L59.175,42.942a.484.484,0,0,0-.524,0Z" transform="translate(-16.3 -2.689)"/>
    <path id="Trazado_26" data-name="Trazado 26" d="M17.589,72.681A15.01,15.01,0,0,1,10.108,61.56,15.033,15.033,0,0,1,2.627,72.681a25.3,25.3,0,0,1-2.627,1,24.543,24.543,0,0,1,2.627,1A15.01,15.01,0,0,1,10.108,85.8a15.033,15.033,0,0,1,7.481-11.121,25.3,25.3,0,0,1,2.627-1A24.543,24.543,0,0,1,17.589,72.681Z" transform="translate(0 -29.909)"/>
    <path id="Trazado_27" data-name="Trazado 27" d="M135.932,81.886A2.936,2.936,0,1,1,133,78.95,2.938,2.938,0,0,1,135.932,81.886Z" transform="translate(-63.189 -38.358)"/>
    <ellipse id="Elipse_2" data-name="Elipse 2" cx="2.936" cy="2.936" rx="2.936" ry="2.936" transform="translate(23.713)"/>
  </g>
</svg>
