<svg id="Graphic_Elements" data-name="Graphic Elements" xmlns="http://www.w3.org/2000/svg" width="58.871" height="55.574" viewBox="0 0 58.871 55.574">
  <g id="Grupo_5" data-name="Grupo 5" transform="translate(0 0)">
    <path id="Trazado_3" data-name="Trazado 3" d="M65.034,24.268,62.253,37.482a.357.357,0,0,1-.658.113L55.157,25.949a.343.343,0,0,0-.35-.175L41.44,27.507a.349.349,0,0,1-.293-.591l9.234-9.98a.366.366,0,0,0,.067-.391L44.972,4.4a.364.364,0,0,1,.478-.478L57.595,9.4a.366.366,0,0,0,.391-.067L67.96.1a.35.35,0,0,1,.591.293L66.818,13.759a.347.347,0,0,0,.175.35l11.646,6.437a.357.357,0,0,1-.113.658L65.312,23.985a.37.37,0,0,0-.283.283Z" transform="translate(-19.944 0)"/>
    <path id="Trazado_4" data-name="Trazado 4" d="M24.678,62.139c-1.08-1.08-7.2,5.034-7.2,5.034l-6.118,6.118s-6.118,6.118-5.034,7.2,7.2-5.034,7.2-5.034l6.118-6.118s6.118-6.118,5.034-7.2Z" transform="translate(-3.013 -30.128)"/>
    <path id="Trazado_5" data-name="Trazado 5" d="M48.218,72.029c-1.08-1.08-7.2,5.034-7.2,5.034L34.9,83.181s-6.118,6.118-5.034,7.2,7.2-5.034,7.2-5.034l6.118-6.118S49.3,73.109,48.218,72.029Z" transform="translate(-14.449 -34.933)"/>
    <path id="Trazado_6" data-name="Trazado 6" d="M18.479,34.909c-1.08-1.08-7.2,5.034-7.2,5.034L5.163,46.061s-6.113,6.113-5.034,7.2,7.2-5.034,7.2-5.034l6.118-6.118S19.564,35.989,18.479,34.909Z" transform="translate(-0.001 -16.898)"/>
  </g>
</svg>
