<svg id="Graphic_Elements" data-name="Graphic Elements" xmlns="http://www.w3.org/2000/svg" width="65.498" height="65.493" viewBox="0 0 65.498 65.493">
  <path id="Trazado_28" data-name="Trazado 28" d="M65.5,32.746,40.207,27.317c2.725-2.807,8.7-9.137,7.908-9.928-.735-.735-6.237,4.355-9.27,7.27L32.746,0,26.659,24.659c-3.034-2.915-8.535-8.005-9.27-7.27-.792.792,5.178,7.121,7.908,9.928L0,32.746l25.291,5.429c-2.725,2.807-8.7,9.137-7.908,9.928.735.735,6.237-4.355,9.27-7.27l6.088,24.659,6.088-24.659c3.034,2.915,8.535,8.005,9.27,7.27.792-.792-5.178-7.121-7.908-9.928l25.291-5.429Z"/>
</svg>
