<svg id="Graphic_Elements" data-name="Graphic Elements" xmlns="http://www.w3.org/2000/svg" width="63.693" height="54.536" viewBox="0 0 63.693 54.536">
  <g id="Grupo_4" data-name="Grupo 4" transform="translate(0)">
    <path id="Trazado_1" data-name="Trazado 1" d="M63.733,52.034A22.62,22.62,0,0,0,76,35.35,22.633,22.633,0,0,0,88.269,52.034a42.918,42.918,0,0,0,4.3,1.5,42.917,42.917,0,0,0-4.3,1.5A22.62,22.62,0,0,0,76,71.711,22.632,22.632,0,0,0,63.733,55.027a42.917,42.917,0,0,0-4.3-1.5A42.918,42.918,0,0,0,63.733,52.034Z" transform="translate(-28.879 -17.175)"/>
    <path id="Trazado_2" data-name="Trazado 2" d="M4.308,16.684A22.638,22.638,0,0,0,16.581,0,22.632,22.632,0,0,0,28.849,16.684a42.917,42.917,0,0,0,4.3,1.5,42.917,42.917,0,0,0-4.3,1.5A22.62,22.62,0,0,0,16.581,36.361,22.633,22.633,0,0,0,4.313,19.677a42.917,42.917,0,0,0-4.3-1.5,42.917,42.917,0,0,0,4.3-1.5Z" transform="translate(-0.01)"/>
  </g>
</svg>
