<svg id="Grupo_7" data-name="Grupo 7" xmlns="http://www.w3.org/2000/svg" width="62.518" height="62.621" viewBox="0 0 62.518 62.621">
  <path id="Trazado_29" data-name="Trazado 29" d="M5.679,13.564l.113.447.118-.792A9.888,9.888,0,0,1,9.633,6.88h0A11.968,11.968,0,0,1,5.494.437L5.381-.01,5.262.782A9.888,9.888,0,0,1,1.54,7.121h0a11.968,11.968,0,0,1,4.139,6.442Z" transform="translate(-0.746 0.01)"/>
  <path id="Trazado_30" data-name="Trazado 30" d="M118.305,13.633a1.732,1.732,0,1,1-1.9-1.542A1.729,1.729,0,0,1,118.305,13.633Z" transform="translate(-55.797 -5.864)"/>
  <path id="Trazado_31" data-name="Trazado 31" d="M108.927,36.867a2.474,2.474,0,1,1-2.72-2.2A2.476,2.476,0,0,1,108.927,36.867Z" transform="translate(-50.522 -16.831)"/>
  <path id="Trazado_32" data-name="Trazado 32" d="M61.989,31.37c-4.6-.473-9.193-.751-13.79-.961s-9.167-.308-13.754-.344q2.846-2.915,5.6-5.918c2.118-2.324,4.211-4.684,6.2-7.136a.252.252,0,0,0-.355-.355c-2.453,1.995-4.807,4.082-7.136,6.2q-3.008,2.753-5.918,5.6-.054-6.887-.35-13.779C32.276,10.084,32,5.5,31.525.907a.372.372,0,0,0-.74,0c-.468,4.591-.746,9.178-.961,13.769q-.3,6.887-.35,13.779c-1.949-1.9-3.923-3.774-5.928-5.609-2.324-2.118-4.679-4.2-7.121-6.2A.252.252,0,0,0,16.07,17c1.995,2.447,4.077,4.8,6.2,7.121q2.761,3.016,5.609,5.928-6.887.054-13.779.35c-4.591.211-9.178.488-13.769.961a.372.372,0,0,0,0,.74c4.591.468,9.178.746,13.769.961q6.887.3,13.779.35c-1.9,1.949-3.774,3.923-5.609,5.928-2.118,2.324-4.2,4.679-6.2,7.121a.252.252,0,0,0,.355.355c2.447-1.995,4.8-4.077,7.121-6.2q3.008-2.761,5.928-5.609.054,6.879.344,13.759c.211,4.6.488,9.193.961,13.79a.372.372,0,0,0,.74,0c.473-4.6.751-9.193.961-13.79s.308-9.167.344-13.754q2.915,2.846,5.918,5.6c2.324,2.118,4.684,4.211,7.136,6.2a.252.252,0,0,0,.355-.355c-1.995-2.453-4.082-4.807-6.2-7.136q-2.753-3.008-5.6-5.918,6.879-.054,13.754-.344c4.6-.211,9.193-.494,13.79-.961a.372.372,0,0,0,0-.74Z" transform="translate(0.005 -0.274)"/>
</svg>
