<?xml version="1.0" encoding="UTF-8"?>
<svg id="Capa_2" data-name="Capa 2" xmlns="http://www.w3.org/2000/svg" xmlns:xlink="http://www.w3.org/1999/xlink" viewBox="0 0 466.64 369.81">
  <defs>
    <style>
      .cls-1 {
        fill: #fff;
      }

      .cls-2 {
        clip-path: url(#clippath-2);
      }

      .cls-3 {
        fill: #fbc7b0;
      }

      .cls-4 {
        clip-path: url(#clippath-1);
      }

      .cls-5 {
        clip-path: url(#clippath-4);
      }

      .cls-6 {
        fill: #d9e5f8;
      }

      .cls-7 {
        fill: #b9d038;
        opacity: .36;
      }

      .cls-8 {
        clip-path: url(#clippath);
      }

      .cls-9, .cls-10 {
        fill: none;
      }

      .cls-11 {
        clip-path: url(#clippath-3);
      }

      .cls-10 {
        stroke: #000;
        stroke-linecap: round;
        stroke-linejoin: round;
        stroke-width: 1.5px;
      }

      .cls-12 {
        clip-path: url(#clippath-5);
      }

      .cls-13 {
        fill: #edc6b0;
      }

      .cls-14 {
        fill: #ffb4b0;
      }
    </style>
    <clipPath id="clippath">
      <path class="cls-9" d="m64.14,303.11c47.41,49.55,117.65,73.18,185.47,65.16,61.23-7.25,201.76-78.38,216.17-144.28,11.09-50.69-87.57-59.15-134.97-73.08-48.82-14.34-48.68-86.71-72.52-115.68C199.27-36.49,74,11.36,22.66,88.77c-38.24,57.67-30.43,139.19,41.47,214.34Z"/>
    </clipPath>
    <clipPath id="clippath-1">
      <path class="cls-1" d="m357.19,199.67l-96,48.65s-53.16-57.94-79.48-82.17c-26.32-24.23-65.06-1.82-21.99,58.45,43.06,60.27,82.76,86.18,101.49,79.47,18.73-6.71,113.37-70.08,113.37-70.08l-17.39-34.32Z"/>
    </clipPath>
    <clipPath id="clippath-2">
      <path class="cls-6" d="m87.58,353.57s-33.86-213.85,70.4-196.64c0,0,3.76,1.17,9.61,3.94,43.13,20.45,67.71,66.69,62.01,114.08-2.59,21.48-8.41,54.84-21.08,104.9-87.55,17.62-120.94-26.29-120.94-26.29Z"/>
    </clipPath>
    <clipPath id="clippath-3">
      <path class="cls-3" d="m129.55,154.45s27.52,21.1,47.99,33.87c3.58-12.29,22.61-75.92,22.61-75.92l-54.13-6.92-16.47,48.98Z"/>
    </clipPath>
    <clipPath id="clippath-4">
      <path class="cls-13" d="m197.31,19.71c9.94,5.6,19.93,15.27,24.08,31.98,16.52,89.39-11.11,96.09-42.06,92.17-32.1-4.07-53.9-30.98-62.94-63.27-6.31-22.52,4.87-46.3,24.88-59.08,16.88-10.78,38.59-11.63,56.04-1.8Z"/>
    </clipPath>
    <clipPath id="clippath-5">
      <polygon class="cls-1" points="177.54 188.32 134.5 139.72 120.1 156.08 147.22 188.32 164.85 185.48 177.54 188.32"/>
    </clipPath>
  </defs>
  <g id="Capa_3" data-name="Capa 3">
    <path class="cls-7" d="m64.14,303.11c47.41,49.55,117.65,73.18,185.47,65.16,61.23-7.25,137.64-44.05,152.06-109.95,11.09-50.69-23.46-93.49-70.85-107.41-48.82-14.34-61.75-42.34-85.59-71.31C186.2,7.88,74,11.36,22.66,88.77c-38.24,57.67-30.43,139.19,41.47,214.34Z"/>
    <g class="cls-8">
      <path d="m172.99,10.02s27.14-3.07,46.59,27.14c19.46,30.21-13.82,39.43,25.6,98.82,23.04,39.94-17.41,65.54-42.5,65.03-25.09-.51-77.83.35-107.01-45.14C66.49,110.38,104.89,12.58,172.99,10.02Z"/>
      <path class="cls-13" d="m354.12,204.23c26.15-13.54,56.15-11.69,57.99-8.23s-21.53,10.36-21.53,10.36c0,0,35.75-6.61,39.54-1.59,3.79,5.02-19.18,29.13-73.07,19.8l-2.93-20.35Z"/>
      <g>
        <path class="cls-1" d="m357.19,199.67l-96,48.65s-53.16-57.94-79.48-82.17c-26.32-24.23-65.06-1.82-21.99,58.45,43.06,60.27,82.76,86.18,101.49,79.47,18.73-6.71,113.37-70.08,113.37-70.08l-17.39-34.32Z"/>
        <g class="cls-4">
          <path d="m200.15,188.32s59.11,43.9,32.32,127.69l-16.79-9.05-15.53-118.65Z"/>
        </g>
      </g>
      <g>
        <path class="cls-6" d="m87.58,353.57s-33.86-213.85,70.4-196.64c0,0,3.76,1.17,9.61,3.94,43.13,20.45,67.71,66.69,62.01,114.08-2.59,21.48-8.41,54.84-21.08,104.9-87.55,17.62-120.94-26.29-120.94-26.29Z"/>
        <g class="cls-2">
          <path class="cls-10" d="m171.3,168.54s37.73,70.07-.82,223.28"/>
          <rect class="cls-10" x="133.53" y="238.68" width="38.09" height="13.44" transform="translate(329.57 473.82) rotate(174.1)"/>
          <path d="m125.41,220.94c-.15.44-13.6,74.16-64.1,100.99-15.23-27.14-12.38-30.47-12.38-30.47l76.48-70.52Z"/>
        </g>
      </g>
      <g>
        <path class="cls-3" d="m129.55,154.45s27.52,21.1,47.99,33.87c3.58-12.29,22.61-75.92,22.61-75.92l-54.13-6.92-16.47,48.98Z"/>
        <g class="cls-11">
          <path d="m189.92,26.1s50.76,4.09,52.45,58.33c1.69,54.24-14.04,77.4-44.98,73.48-32.1-4.07-53.9-30.98-62.94-63.27-9.06-32.37,17.99-67.33,55.47-68.53Z"/>
        </g>
      </g>
      <g>
        <path class="cls-13" d="m197.31,19.71c9.94,5.6,19.93,15.27,24.08,31.98,16.52,89.39-11.11,96.09-42.06,92.17-32.1-4.07-53.9-30.98-62.94-63.27-6.31-22.52,4.87-46.3,24.88-59.08,16.88-10.78,38.59-11.63,56.04-1.8Z"/>
        <g class="cls-5">
          <circle class="cls-14" cx="232.56" cy="105.97" r="15.86" transform="translate(45.17 279.75) rotate(-67.34)"/>
          <circle class="cls-14" cx="171.21" cy="109.07" r="15.86" transform="translate(22.48 247.24) rotate(-75.39)"/>
          <path class="cls-10" d="m143.49,97.09s5.46-1.17,8.31,6.84c-3.57.18-4.6,3.24-3.73,5.08"/>
          <path class="cls-10" d="m221.09,87.08s-4.98-4.39-9.5.48"/>
          <path d="m213.84,92.02c-.16-3.08.99-4.67,2.5-4.75s2.81,1.39,2.96,4.47c.16,3.08-.99,4.67-2.5,4.75s-2.81-1.39-2.96-4.47Z"/>
          <path class="cls-10" d="m190.21,88.64s-4.98-4.39-9.5.48"/>
          <path d="m182.96,93.58c-.16-3.08.99-4.67,2.5-4.75,1.51-.08,2.81,1.39,2.96,4.47.16,3.08-.99,4.67-2.5,4.75-1.51.08-2.81-1.39-2.96-4.47Z"/>
          <path class="cls-10" d="m207.13,115.48s-7.11,3.2-14.69-2.91"/>
          <path class="cls-10" d="m202.93,91.59s1.14,6.11,4.46,8.78c3.31,2.67,1.49,6.28-1.69,6.27"/>
          <path d="m211.15,78.7c-.08-1.61,1.98-3.02,4.6-3.15,2.62-.13,4.81,1.06,4.9,2.67.08,1.61-.95,1.6-3.57,1.73-2.62.13-5.85.36-5.93-1.25Z"/>
          <path d="m180.27,80.25c-.08-1.61,1.98-3.02,4.6-3.15,2.62-.13,4.81,1.06,4.9,2.67.08,1.61-.95,1.6-3.57,1.73-2.62.13-5.85.36-5.93-1.25Z"/>
        </g>
      </g>
      <g>
        <polygon class="cls-1" points="177.54 188.32 134.5 139.72 120.1 156.08 147.22 188.32 164.85 185.48 177.54 188.32"/>
        <g class="cls-12">
          <polygon points="152.28 182.47 164.85 185.48 147.22 188.32 152.28 182.47"/>
        </g>
      </g>
      <polygon class="cls-1" points="177.54 188.32 188.24 152.28 197.64 166.03 177.54 188.32"/>
      <path class="cls-10" d="m244.08,278.92s3.9-22.1,15.91-26.29c-5.73,12.56-.81,22.63-.81,22.63"/>
      <path class="cls-1" d="m-59.88,354.7s45.92-33.41,83.35-84.71c37.43-51.3,73.01-105.54,89.79-99.31,16.79,6.23,33.43,38.11-20.64,104.66-54.07,66.55-134.36,104.52-134.36,104.52l-18.14-25.17Z"/>
      <path d="m230.05,73s-24.21,1.7-48.71-18.42c-7.47-6.14-18.77-1.87-20.19,7.7-3.7,24.91-4.79,31.21-4.79,31.21,0,0-4.5-9.73-15.95-6.66-11.46,3.07-5.18,22.34,2.18,28.83,1.21,21.86-15.17,41.14-38.21,31.24-18.43-80.04,8.15-122.73,56.82-135.44,48.66-12.71,76.82,33.38,68.85,61.54Z"/>
      <path class="cls-6" d="m212.31,22.42s-28.57-12.4-53.66,9.62c-25.09,22.02-18.24,54.79-18.24,54.79l-5.28,4.34s-11.81-36.6,16.35-61.68c28.16-25.09,58.1-12.6,60.83-7.06Z"/>
      <circle class="cls-6" cx="143.2" cy="100.41" r="21.65"/>
      <path class="cls-6" d="m152.68,110.53l48.56,17.32c1.08.39,1.65,1.59,1.27,2.67h0c-.39,1.08-1.59,1.65-2.67,1.27l-48.56-17.32c-1.08-.39-1.65-1.59-1.27-2.67h0c.39-1.08,1.59-1.65,2.67-1.27Z"/>
      <path class="cls-6" d="m196.05,133.92l4.48.7c2.74.43,5.33-1.46,5.75-4.2h0c.43-2.74-1.46-5.33-4.2-5.75l-4.48-.7c-2.74-.43-5.33,1.46-5.75,4.2h0c-.43,2.74,1.46,5.33,4.2,5.75Z"/>
      <circle class="cls-10" cx="143.2" cy="100.41" r="15.99" transform="translate(12.76 216.92) rotate(-76.81)"/>
      <path d="m180.8,372.78c0-1.87,1.52-3.39,3.39-3.39s3.39,1.52,3.39,3.39-1.52,3.39-3.39,3.39-3.39-1.52-3.39-3.39Z"/>
      <path d="m194.24,230.1c0-1.87,1.52-3.39,3.39-3.39s3.39,1.52,3.39,3.39-1.52,3.39-3.39,3.39-3.39-1.52-3.39-3.39Z"/>
      <path d="m194.24,301.44c0-1.87,1.52-3.39,3.39-3.39s3.39,1.52,3.39,3.39-1.52,3.39-3.39,3.39-3.39-1.52-3.39-3.39Z"/>
      <path d="m185.53,194.44c0-1.87,1.52-3.39,3.39-3.39s3.39,1.52,3.39,3.39-1.52,3.39-3.39,3.39-3.39-1.52-3.39-3.39Z"/>
      <path d="m194.24,265.77c0-1.87,1.52-3.39,3.39-3.39s3.39,1.52,3.39,3.39-1.52,3.39-3.39,3.39-3.39-1.52-3.39-3.39Z"/>
      <path d="m188.92,337.11c0-1.87,1.52-3.39,3.39-3.39s3.39,1.52,3.39,3.39-1.52,3.39-3.39,3.39-3.39-1.52-3.39-3.39Z"/>
      <line class="cls-10" x1="345.26" y1="205.72" x2="362.98" y2="241.71"/>
    </g>
  </g>
</svg>